<svg width="1000" height="1000" viewBox="0 0 1000 1000" fill="none" xmlns="http://www.w3.org/2000/svg">
<rect width="1000" height="1000" fill="#4F39F6"/>
<path d="M809.157 515.891C837.7 515.891 865.458 515.869 893.217 515.906C908.563 515.928 918.086 524.863 917.999 539.02C917.918 552.522 908.064 561.505 893.286 561.491C842.746 561.441 792.206 561.279 741.667 561.388C730.863 561.41 723.264 556.683 717.541 547.962C709.523 535.742 701.397 523.595 692.397 510.03C688.785 519.949 685.529 528.538 682.523 537.213C669.244 575.521 656.031 613.849 642.809 652.176C639.245 662.509 628.3 670.098 617.382 669.737C606.193 669.366 596.037 660.656 592.452 649.049C565.367 561.339 538.188 473.656 511.012 385.974C510.415 384.049 509.513 382.221 508.346 379.343C498.922 408.272 489.809 436.054 480.82 463.879C455.412 542.534 430.082 621.216 404.639 699.862C401.432 709.773 390.889 717.042 380.624 717C369.622 716.957 360.111 709.775 356.501 699.117C345.095 665.433 333.596 631.78 322.044 597.857C315.287 598.274 308.595 599.154 301.926 599.011C277.064 598.477 257.711 587.482 244.058 566.875C241.41 562.879 238.976 561.383 234.224 561.4C191.016 561.548 147.809 561.452 104.601 561.337C92.9261 561.307 83.706 554.153 81.5782 543.852C79.3042 532.84 83.8192 522.66 93.6882 518.397C97.617 516.7 102.266 516.013 106.592 515.996C149.007 515.825 191.422 515.892 234.393 515.892C237.835 502.566 243.121 490.256 252.601 480.081C275.105 455.925 315.492 451.007 343.398 469.138C372.738 488.203 383.995 524.154 369.139 555.839C364.541 565.649 364.789 573.901 368.284 583.288C372.205 593.818 375.579 604.551 379.744 616.823C381.824 611.22 383.606 606.885 385.06 602.442C417.865 502.268 450.632 402.08 483.361 301.881C487.342 289.691 497.404 281.847 509.484 282.002C521.212 282.152 531.853 290.379 535.307 301.486C556.039 368.141 576.878 434.76 597.633 501.405C604.32 522.877 610.85 544.397 617.486 565.885C617.852 567.073 618.556 568.157 619.859 570.853C626.048 553.035 631.818 536.671 637.418 520.248C644.929 498.217 652.193 476.1 659.793 454.099C663.401 443.65 670.671 436.961 681.871 435.375C693.401 433.743 702.225 438.132 708.654 447.834C722.813 469.207 736.985 490.574 751.501 511.705C753.029 513.926 756.865 515.66 759.673 515.724C775.899 516.095 792.137 515.897 809.157 515.891ZM328.765 525.287C326.584 514.552 320.369 507.369 309.595 505.049C300.197 503.026 292.002 505.68 286.053 513.615C279.585 522.248 279.419 534.309 285.488 542.901C291.153 550.921 302.237 554.626 311.88 551.723C322.47 548.536 328.605 539.455 328.765 525.287Z" fill="#FCFDFE"/>
</svg>
